<svg width="200" height="280" viewBox="0 0 200 280" xmlns="http://www.w3.org/2000/svg">
  <!-- Uyku sembolleri -->
  <text x="140" y="40" font-size="30" fill="#2d2d2d">z</text>
  <text x="155" y="25" font-size="35" fill="#2d2d2d">z</text>
  <text x="175" y="10" font-size="40" fill="#2d2d2d">z</text>
  
  <!-- Kulaklar -->
  <ellipse cx="60" cy="90" rx="25" ry="30" fill="#8B5A2B" stroke="#3d2817" stroke-width="3"/>
  <ellipse cx="60" cy="95" rx="15" ry="18" fill="#A0754B"/>
  <ellipse cx="140" cy="90" rx="25" ry="30" fill="#8B5A2B" stroke="#3d2817" stroke-width="3"/>
  <ellipse cx="140" cy="95" rx="15" ry="18" fill="#A0754B"/>
  
  <!-- Kafa -->
  <ellipse cx="100" cy="110" rx="65" ry="60" fill="#8B5A2B" stroke="#3d2817" stroke-width="4"/>
  
  <!-- Kapalı gözler -->
  <path d="M 70 105 Q 75 110 80 105" fill="none" stroke="#3d2817" stroke-width="3" stroke-linecap="round"/>
  <path d="M 120 105 Q 125 110 130 105" fill="none" stroke="#3d2817" stroke-width="3" stroke-linecap="round"/>
  
  <!-- Burun -->
  <ellipse cx="100" cy="125" rx="12" ry="10" fill="#3d2817"/>
  
  <!-- Ağız bölgesi -->
  <ellipse cx="100" cy="140" rx="30" ry="25" fill="#D4A574"/>
  
  <!-- Diş -->
  <rect x="95" y="145" width="10" height="12" fill="#fff" stroke="#3d2817" stroke-width="1"/>
  
  <!-- Gülümseyen ağız -->
  <path d="M 75 135 Q 100 145 125 135" fill="none" stroke="#3d2817" stroke-width="2" stroke-linecap="round"/>
  
  <!-- Vücut -->
  <ellipse cx="100" cy="200" rx="70" ry="65" fill="#8B5A2B" stroke="#3d2817" stroke-width="4"/>
  <ellipse cx="100" cy="210" rx="50" ry="45" fill="#D4A574"/>
  
  <!-- Kollar -->
  <ellipse cx="40" cy="190" rx="20" ry="50" fill="#8B5A2B" stroke="#3d2817" stroke-width="3"/>
  <ellipse cx="160" cy="190" rx="20" ry="50" fill="#8B5A2B" stroke="#3d2817" stroke-width="3"/>
  
  <!-- Patiler -->
  <ellipse cx="40" cy="230" rx="18" ry="12" fill="#3d2817"/>
  <ellipse cx="160" cy="230" rx="18" ry="12" fill="#3d2817"/>
  
  <!-- Ayaklar -->
  <ellipse cx="75" cy="260" rx="22" ry="15" fill="#3d2817"/>
  <ellipse cx="125" cy="260" rx="22" ry="15" fill="#3d2817"/>
</svg>
