<svg width="200" height="200" xmlns="http://www.w3.org/2000/svg">
  <!-- Yatak tabanı -->
  <rect x="30" y="120" width="140" height="20" fill="#8B4513" rx="5"/>
  <rect x="25" y="135" width="150" height="15" fill="#654321" rx="5"/>
  
  <!-- Yatak başlığı -->
  <rect x="30" y="70" width="10" height="65" fill="#A0522D" rx="3"/>
  <rect x="30" y="65" width="10" height="20" fill="#D2691E" rx="8"/>
  <rect x="160" y="70" width="10" height="65" fill="#A0522D" rx="3"/>
  <rect x="160" y="65" width="10" height="20" fill="#D2691E" rx="8"/>
  
  <!-- Yatak örtüsü (mavi) -->
  <ellipse cx="100" cy="95" rx="65" ry="30" fill="#4169E1"/>
  <ellipse cx="100" cy="90" rx="65" ry="28" fill="#5B8EE8"/>
  <path d="M 35 95 Q 100 105, 165 95" fill="#3A5BA0" opacity="0.3"/>
  
  <!-- Yastıklar (mavi) -->
  <ellipse cx="70" cy="75" rx="25" ry="12" fill="#6495ED"/>
  <ellipse cx="70" cy="72" rx="25" ry="10" fill="#7BA3F0"/>
  <ellipse cx="130" cy="75" rx="25" ry="12" fill="#6495ED"/>
  <ellipse cx="130" cy="72" rx="25" ry="10" fill="#7BA3F0"/>
  
  <!-- Yastık detayları -->
  <rect x="50" y="70" width="40" height="3" fill="#5B8EE8" opacity="0.5" rx="1"/>
  <rect x="110" y="70" width="40" height="3" fill="#5B8EE8" opacity="0.5" rx="1"/>
</svg>
